<svg xmlns="http://www.w3.org/2000/svg" viewBox="0 0 32 32"><defs><style>.cls-1{fill:#050001;}.cls-2{fill:#fff;}.cls-3{fill:#f40a3e;}.cls-4{fill:none;stroke:#f40a3e;stroke-miterlimit:10;stroke-width:0.5px;}</style></defs><title>JITHack-Logo-White</title><g id="Layer_2" data-name="Layer 2"><g id="Layer_1-2" data-name="Layer 1"><g id="White-With-Background"><rect class="cls-1" width="32" height="32"/><rect class="cls-2" x="8.44" y="5.15" width="1.03" height="15.18"/><rect class="cls-2" x="10.04" y="5.15" width="0.99" height="5.77"/><rect class="cls-2" x="11.66" y="5.15" width="0.99" height="5.77"/><rect class="cls-2" x="13.25" y="5.15" width="0.99" height="5.77"/><rect class="cls-2" x="15.49" y="7.69" width="0.99" height="5.46" transform="translate(26.4 -5.56) rotate(90)"/><rect class="cls-2" x="17.72" y="5.15" width="0.99" height="5.77"/><rect class="cls-2" x="22.53" y="5.15" width="1.03" height="15.18"/><rect class="cls-2" x="19.37" y="14.42" width="0.99" height="5.77"/><rect class="cls-2" x="20.95" y="14.42" width="0.99" height="5.77"/><rect class="cls-2" x="15.49" y="12.19" width="0.99" height="5.46" transform="translate(30.9 -1.07) rotate(90)"/><rect class="cls-2" x="17.72" y="14.42" width="0.99" height="5.77"/><rect class="cls-2" x="13.25" y="14.42" width="0.99" height="5.77"/><rect class="cls-3" x="15.49" y="7.71" width="0.99" height="9.92" transform="translate(28.65 -3.32) rotate(90)"/><rect class="cls-3" x="20.12" y="5.15" width="0.99" height="8.02"/><circle class="cls-4" cx="20.62" cy="4.43" r="0.72"/><rect class="cls-3" x="10.8" y="12.17" width="0.99" height="8.16"/><circle class="cls-4" cx="11.29" cy="20.91" r="0.72"/><path class="cls-2" d="M5.13,23.75v3.06a1.43,1.43,0,0,1-.4,1.1,1.49,1.49,0,0,1-1.08.39,1.62,1.62,0,0,1-1.15-.41,1.52,1.52,0,0,1-.43-1.15h1.1a.67.67,0,0,0,.11.43.39.39,0,0,0,.33.14.39.39,0,0,0,.31-.12A.54.54,0,0,0,4,26.81V23.75Z"/><path class="cls-2" d="M7.11,23.75v4.5H6v-4.5Z"/><path class="cls-2" d="M11.15,23.75v.87H10v3.63H8.86V24.62H7.67v-.87Z"/><path class="cls-2" d="M15.6,23.75v4.5H14.51V26.4H12.8v1.85H11.7v-4.5h1.1v1.76h1.71V23.75Z"/><path class="cls-2" d="M19.2,27.46H17.52l-.27.79H16.1l1.63-4.5H19l1.63,4.5H19.47Zm-.28-.85L18.36,25l-.55,1.65Z"/><path class="cls-2" d="M21.23,24.8A2,2,0,0,1,22,24a2.33,2.33,0,0,1,1.18-.3,2.26,2.26,0,0,1,1.37.43,2,2,0,0,1,.76,1.15h-1.2a1,1,0,0,0-.39-.43,1,1,0,0,0-.56-.14,1,1,0,0,0-.82.35,1.35,1.35,0,0,0-.31.94,1.38,1.38,0,0,0,.31,1,1.06,1.06,0,0,0,.82.35,1,1,0,0,0,.56-.15,1,1,0,0,0,.39-.43h1.2a2,2,0,0,1-.76,1.15,2.25,2.25,0,0,1-1.37.42A2.32,2.32,0,0,1,22,28a2,2,0,0,1-.8-.81A2.44,2.44,0,0,1,20.94,26,2.47,2.47,0,0,1,21.23,24.8Z"/><path class="cls-2" d="M28.63,28.25l-1.52-2v2H26v-4.5h1.09v2l1.51-2h1.29L28.16,26,30,28.25Z"/></g></g></g></svg>