<svg xmlns="http://www.w3.org/2000/svg" viewBox="0 0 27.9 24.84"><defs><style>.cls-1{fill:#f40a3e;}.cls-2{fill:none;stroke:#f40a3e;stroke-miterlimit:10;stroke-width:0.5px;}</style></defs><title>JITHack-Logo-Black-Transparent</title><g id="Layer_2" data-name="Layer 2"><g id="Layer_1-2" data-name="Layer 1"><g id="Black-Transparent"><rect x="6.37" y="1.69" width="1.03" height="15.18"/><rect x="7.96" y="1.69" width="0.99" height="5.77"/><rect x="9.59" y="1.69" width="0.99" height="5.77"/><rect x="11.18" y="1.69" width="0.99" height="5.77"/><rect x="13.41" y="4.24" width="0.99" height="5.46" transform="translate(20.87 -6.94) rotate(90)"/><rect x="15.64" y="1.69" width="0.99" height="5.77"/><rect x="20.45" y="1.69" width="1.03" height="15.18"/><rect x="17.29" y="10.97" width="0.99" height="5.77"/><rect x="18.87" y="10.97" width="0.99" height="5.77"/><rect x="13.41" y="8.74" width="0.99" height="5.46" transform="translate(25.37 -2.45) rotate(90)"/><rect x="15.64" y="10.97" width="0.99" height="5.77"/><rect x="11.18" y="10.97" width="0.99" height="5.77"/><rect class="cls-1" x="13.41" y="4.25" width="0.99" height="9.92" transform="translate(23.12 -4.7) rotate(90)"/><rect class="cls-1" x="18.05" y="1.69" width="0.99" height="8.02"/><circle class="cls-2" cx="18.54" cy="0.97" r="0.72"/><rect class="cls-1" x="8.72" y="8.72" width="0.99" height="8.16"/><circle class="cls-2" cx="9.22" cy="17.46" r="0.72"/><path d="M3.06,20.29v3.07a1.45,1.45,0,0,1-.41,1.1,1.45,1.45,0,0,1-1.08.38,1.6,1.6,0,0,1-1.14-.4A1.49,1.49,0,0,1,0,23.29H1.09a.67.67,0,0,0,.12.43.41.41,0,0,0,.33.14.37.37,0,0,0,.31-.13A.56.56,0,0,0,2,23.36V20.29Z"/><path d="M5,20.29V24.8H3.94V20.29Z"/><path d="M9.08,20.29v.88H7.88V24.8H6.78V21.17H5.59v-.88Z"/><path d="M13.53,20.29V24.8h-1.1V22.94h-1.7V24.8H9.63V20.29h1.1v1.77h1.7V20.29Z"/><path d="M17.13,24H15.44l-.27.8H14l1.63-4.51h1.27l1.63,4.51H17.4Zm-.29-.85-.55-1.64-.56,1.64Z"/><path d="M19.15,21.35a2.2,2.2,0,0,1,.81-.82,2.36,2.36,0,0,1,1.17-.29,2.23,2.23,0,0,1,1.37.42,2,2,0,0,1,.77,1.16H22.06a1,1,0,0,0-.38-.43,1.07,1.07,0,0,0-.56-.15,1,1,0,0,0-.82.36,1.54,1.54,0,0,0,0,1.88,1,1,0,0,0,.82.36,1.07,1.07,0,0,0,.56-.15,1,1,0,0,0,.38-.43h1.21a2,2,0,0,1-.77,1.15,2.23,2.23,0,0,1-1.37.42A2.36,2.36,0,0,1,20,24.54a2.25,2.25,0,0,1-.81-.81,2.46,2.46,0,0,1-.28-1.19A2.43,2.43,0,0,1,19.15,21.35Z"/><path d="M26.55,24.8l-1.51-2v2h-1.1V20.29H25v2l1.5-2h1.29L26.09,22.5l1.81,2.3Z"/></g></g></g></svg>