<svg xmlns="http://www.w3.org/2000/svg" viewBox="0 0 109.88 130.88"><defs><style>.cls-1{fill:#fff}.cls-2{fill:#f40a3e}.cls-3{fill:none;stroke:#f40a3e;stroke-miterlimit:10;stroke-width:.5px}</style></defs><title>LogoLarge-White</title><g id="Layer_2" data-name="Layer 2"><g id="Layer_1-2" data-name="Layer 1"><rect width="7.47" height="110.39" y="10.75" class="cls-1"/><rect width="7.21" height="41.95" x="11.59" y="10.75" class="cls-1"/><rect width="7.21" height="41.95" x="23.38" y="10.75" class="cls-1"/><rect width="7.21" height="41.95" x="34.97" y="10.75" class="cls-1"/><rect width="7.21" height="39.68" x="51.21" y="29.25" class="cls-1" transform="translate(103.9 -5.72) rotate(90)"/><rect width="7.21" height="41.95" x="67.44" y="10.75" class="cls-1"/><rect width="7.47" height="110.39" x="102.41" y="10.75" class="cls-1"/><rect width="7.21" height="41.95" x="79.42" y="78.19" class="cls-1"/><rect width="7.21" height="41.95" x="90.91" y="78.19" class="cls-1"/><rect width="7.21" height="39.68" x="51.21" y="61.95" class="cls-1" transform="translate(136.61 26.98) rotate(90)"/><rect width="7.21" height="41.95" x="67.44" y="78.19" class="cls-1"/><rect width="7.21" height="41.95" x="34.97" y="78.19" class="cls-1"/><rect width="7.21" height="72.17" x="51.22" y="29.36" class="cls-2" transform="translate(120.27 10.61) rotate(90)"/><rect width="7.21" height="58.3" x="84.92" y="10.75" class="cls-2"/><circle cx="88.53" cy="5.5" r="5.25" class="cls-3"/><rect width="7.21" height="59.31" x="17.1" y="61.84" class="cls-2"/><circle cx="20.71" cy="125.39" r="5.25" class="cls-3"/></g></g></svg>