<?xml version="1.0" standalone="no"?>
<!DOCTYPE svg PUBLIC "-//W3C//DTD SVG 20010904//EN"
 "http://www.w3.org/TR/2001/REC-SVG-20010904/DTD/svg10.dtd">
<svg version="1.0" xmlns="http://www.w3.org/2000/svg"
 width="640.000000pt" height="445.000000pt" viewBox="0 0 640.000000 445.000000"
 preserveAspectRatio="xMidYMid meet">

<g transform="translate(0.000000,445.000000) scale(0.100000,-0.100000)"
fill="#000000" stroke="none">
<path d="M2665 4073 c-104 -31 -192 -57 -195 -60 -4 -3 32 -204 46 -253 3 -11
-19 -27 -74 -54 -42 -21 -114 -62 -160 -92 -45 -30 -87 -54 -93 -54 -6 0 -54
38 -108 84 l-98 84 -148 -148 -148 -148 84 -97 c46 -54 83 -101 82 -104 -1 -3
-27 -44 -58 -90 -31 -47 -74 -120 -96 -163 l-40 -79 -37 7 c-20 3 -77 15 -126
25 -49 11 -90 18 -92 16 -9 -9 -114 -391 -109 -396 4 -3 56 -24 118 -47 l111
-41 -3 -49 c-1 -27 -5 -52 -7 -56 -7 -12 -684 -10 -684 1 0 5 -15 26 -34 45
-30 32 -39 36 -84 36 -93 0 -150 -79 -118 -164 20 -51 58 -76 119 -76 49 0
100 32 112 71 7 21 10 21 508 18 l502 -3 3 29 c44 491 315 900 738 1115 157
80 291 119 507 145 l47 6 0 145 0 145 -81 -2 c-58 -1 -83 2 -89 11 -5 7 -27
66 -51 132 -24 65 -45 118 -48 117 -3 -1 -91 -26 -196 -56z"/>
<path d="M3465 3998 l-50 -133 -83 4 -82 3 0 -145 0 -146 48 -6 c190 -23 314
-55 448 -116 266 -119 507 -347 642 -607 78 -148 124 -299 146 -472 l12 -95
492 -3 493 -2 37 -39 c48 -50 96 -61 148 -34 81 42 96 140 30 200 -30 28 -43
33 -85 33 -39 0 -56 -6 -80 -26 -17 -14 -31 -32 -31 -40 0 -7 -10 -16 -22 -19
-13 -3 -171 -4 -353 -3 l-330 3 -3 50 -3 50 123 46 c139 52 133 42 100 157
l-20 72 131 0 c127 0 133 -1 142 -22 6 -12 26 -33 45 -46 80 -54 190 5 190
103 0 37 -6 52 -33 81 -28 31 -41 37 -86 42 -51 5 -53 4 -96 -42 l-45 -46
-133 0 -134 0 -22 76 c-20 69 -24 75 -44 71 -69 -17 -248 -49 -251 -46 -12 15
-87 161 -85 164 2 2 244 1 537 -2 l533 -6 16 -27 c35 -60 125 -80 177 -39 33
26 56 70 56 107 0 35 -37 92 -70 109 -57 29 -131 7 -164 -48 l-17 -29 -308 0
c-169 0 -422 3 -562 7 l-254 6 -28 39 -27 39 92 105 92 105 -149 149 -148 149
-90 -77 c-137 -118 -113 -113 -219 -44 -51 33 -122 74 -158 92 -36 18 -66 34
-68 35 -2 2 9 64 24 139 15 75 25 138 23 140 -2 2 -87 27 -189 56 -102 29
-190 54 -195 57 -6 2 -33 -56 -60 -129z"/>
<path d="M3863 3045 c-17 -12 -112 -15 -619 -17 l-599 -3 -45 -24 c-61 -32
-117 -86 -148 -146 -23 -43 -27 -62 -27 -135 0 -73 4 -92 27 -136 32 -61 94
-119 156 -146 28 -13 81 -23 136 -28 105 -8 148 -24 193 -71 60 -64 63 -84 63
-473 l0 -352 27 -41 c67 -105 214 -110 285 -11 l23 33 5 490 c4 393 8 496 19
521 13 28 13 35 -2 58 -23 34 -60 43 -92 22 -33 -22 -42 -59 -21 -91 14 -21
16 -79 16 -493 0 -453 -1 -470 -20 -495 -25 -31 -65 -42 -102 -26 -56 23 -58
35 -58 417 0 397 -2 408 -76 491 -63 70 -129 100 -234 107 -107 7 -143 18
-186 57 -117 102 -99 289 36 360 l52 27 594 0 c384 0 595 -4 599 -10 11 -17
64 -11 85 10 27 27 26 71 -3 98 -27 26 -54 28 -84 7z"/>
<path d="M3730 2865 c-22 -13 -144 -54 -178 -61 -18 -3 -92 -79 -110 -112 -8
-15 -23 -52 -33 -82 -20 -57 -22 -150 -19 -924 l1 -209 -28 -56 c-24 -48 -36
-60 -83 -83 -123 -63 -261 -18 -314 101 -17 36 -18 47 -8 75 26 70 3 116 -58
116 -65 0 -91 -64 -50 -125 11 -16 20 -39 20 -50 0 -40 46 -113 99 -158 130
-111 296 -103 417 19 93 95 88 59 94 719 5 623 3 598 59 658 50 55 133 78 196
56 31 -12 38 -11 62 7 38 28 41 67 9 99 -29 29 -41 30 -76 10z"/>
<path d="M1511 2078 l4 -92 -107 -40 c-59 -23 -109 -44 -112 -47 -3 -3 3 -35
13 -72 l20 -67 -137 0 -137 0 -17 30 c-22 39 -77 63 -124 54 -72 -13 -121 -99
-94 -164 40 -96 168 -109 221 -23 l21 33 142 0 143 0 22 -77 c13 -43 25 -86
28 -96 3 -12 11 -15 26 -12 47 11 212 43 213 42 61 -116 94 -181 94 -188 0 -5
-220 -9 -509 -9 -497 0 -510 0 -516 20 -22 68 -135 94 -194 44 -57 -48 -58
-136 -1 -186 42 -39 115 -39 159 -3 16 14 33 35 36 45 6 20 19 20 539 20 l533
0 32 -45 33 -46 -78 -90 -77 -91 144 -144 c79 -79 149 -144 155 -144 6 0 17 7
24 15 6 8 43 40 81 71 l69 56 102 -67 c57 -37 136 -82 176 -102 63 -30 73 -38
68 -57 -14 -60 -39 -206 -35 -209 6 -6 373 -107 385 -107 11 0 84 176 84 201
0 8 27 10 95 5 l95 -7 0 175 0 176 -49 0 c-72 0 -206 26 -310 60 -485 158
-851 592 -918 1088 -9 64 -17 123 -19 130 -3 9 -44 12 -165 12 l-161 0 3 -92z"/>
<path d="M4547 2163 c-4 -3 -7 -21 -7 -38 0 -52 -29 -204 -56 -295 -36 -120
-132 -310 -207 -410 -128 -169 -322 -329 -502 -415 -148 -70 -337 -122 -463
-127 l-62 -2 0 -174 0 -173 43 5 c23 3 64 7 91 8 l49 3 40 -107 c21 -60 44
-108 49 -108 18 0 373 102 381 110 5 4 -1 55 -12 114 -12 59 -21 111 -21 116
0 5 37 28 82 51 46 22 122 68 170 101 l88 60 89 -76 c49 -42 93 -76 98 -76 4
0 73 65 152 144 l144 144 -82 96 -83 96 47 70 c25 38 69 114 97 167 28 54 52
99 54 101 1 2 58 -8 126 -21 67 -14 124 -24 125 -23 7 7 112 390 108 396 -3 4
-58 27 -124 50 l-119 44 5 88 6 88 -150 0 c-82 0 -153 -3 -156 -7z"/>
</g>
</svg>
