<?xml version="1.0" standalone="no"?>
<!DOCTYPE svg PUBLIC "-//W3C//DTD SVG 20010904//EN"
 "http://www.w3.org/TR/2001/REC-SVG-20010904/DTD/svg10.dtd">
<svg version="1.0" xmlns="http://www.w3.org/2000/svg"
 width="338.000000pt" height="234.000000pt" viewBox="0 0 338.000000 234.000000"
 preserveAspectRatio="xMidYMid meet">

<g transform="translate(0.000000,234.000000) scale(0.100000,-0.100000)"
fill="#000000" stroke="none">
<path d="M1361 2304 c-62 -18 -115 -35 -117 -36 -1 -2 4 -32 11 -68 21 -97 22
-94 -57 -138 -40 -21 -87 -48 -104 -58 l-32 -18 -62 54 -62 53 -89 -89 -89
-89 55 -62 56 -62 -34 -48 c-19 -26 -49 -74 -67 -106 -23 -41 -37 -56 -49 -53
-35 10 -133 28 -135 24 -6 -8 -67 -231 -63 -234 2 -2 32 -14 68 -28 63 -24 64
-24 64 -62 l0 -39 -210 -3 -209 -2 -24 30 c-27 35 -68 40 -100 13 -32 -27 -37
-64 -12 -96 29 -36 81 -37 114 -2 l23 25 307 0 306 0 0 38 c0 86 53 245 118
356 48 82 171 208 261 267 90 59 201 103 297 119 128 21 114 9 114 105 l0 85
-49 0 -49 0 -27 73 c-15 39 -30 75 -34 78 -3 3 -57 -9 -120 -27z"/>
<path d="M1880 2316 c-5 -11 -20 -48 -33 -81 l-23 -60 -51 3 -50 4 -2 -86 c-1
-47 2 -86 7 -86 42 0 198 -36 261 -60 163 -63 325 -202 416 -357 52 -89 100
-229 111 -321 l7 -62 308 0 c184 0 309 -4 309 -9 0 -20 33 -41 66 -41 66 0 95
61 53 114 -28 35 -80 36 -107 1 l-19 -24 -214 -1 c-213 -2 -213 -1 -221 21
-13 36 -5 44 76 73 82 30 82 30 55 104 -15 40 -11 42 69 42 74 0 79 -1 104
-30 49 -56 128 -29 128 43 0 68 -81 96 -126 43 -23 -26 -27 -27 -111 -24 l-87
3 -9 35 c-5 19 -12 38 -16 42 -4 4 -42 1 -85 -7 -44 -8 -80 -14 -81 -13 -7 11
-55 101 -55 104 0 2 150 4 334 4 317 0 335 -1 341 -18 5 -19 44 -42 69 -42 30
0 66 41 66 74 0 72 -79 100 -129 46 l-27 -30 -339 5 -340 5 -23 26 -22 26 57
64 56 65 -88 89 -89 89 -35 -30 c-20 -16 -50 -41 -67 -55 l-32 -24 -53 35
c-30 20 -74 45 -99 57 -25 12 -46 22 -48 23 -1 1 4 34 13 74 8 40 15 79 15 86
0 9 -27 22 -72 35 -40 11 -92 27 -116 34 -41 13 -44 13 -52 -8z"/>
<path d="M2095 1670 c-4 -6 -139 -10 -371 -10 -403 0 -406 0 -461 -63 -28 -32
-53 -90 -53 -122 0 -53 55 -141 104 -167 11 -6 54 -14 94 -18 83 -8 117 -27
144 -81 16 -29 18 -64 18 -251 0 -235 4 -259 51 -284 59 -30 126 -6 146 53 5
16 10 156 11 313 1 157 5 297 8 312 5 21 1 29 -16 38 -19 10 -26 9 -42 -8 -16
-16 -18 -23 -9 -40 7 -14 11 -119 11 -311 0 -278 -1 -292 -20 -311 -26 -26
-46 -25 -75 5 l-25 24 0 226 c0 250 -2 258 -64 313 -35 30 -50 35 -150 47 -59
6 -90 25 -116 68 -39 63 -20 144 42 189 33 23 34 23 393 26 274 2 365 0 383
-10 40 -21 80 23 52 57 -14 17 -46 20 -55 5z"/>
<path d="M2010 1560 c-8 -4 -35 -14 -60 -20 -56 -15 -114 -72 -129 -125 -7
-26 -11 -163 -11 -382 l0 -341 -26 -32 c-66 -78 -154 -80 -224 -6 -20 22 -24
37 -25 84 0 57 0 57 -30 57 -24 0 -31 -5 -33 -24 -7 -48 55 -160 104 -189 56
-33 156 -28 206 10 71 54 72 61 78 463 5 352 5 361 27 391 28 39 73 58 119 51
46 -8 64 0 64 27 0 38 -28 55 -60 36z"/>
<path d="M1585 1509 c-10 -15 1 -23 20 -15 9 3 13 10 10 16 -8 13 -22 13 -30
-1z"/>
<path d="M1545 1460 c-3 -5 -1 -10 4 -10 6 0 11 5 11 10 0 6 -2 10 -4 10 -3 0
-8 -4 -11 -10z"/>
<path d="M1615 1450 c3 -5 10 -10 16 -10 5 0 9 5 9 10 0 6 -7 10 -16 10 -8 0
-12 -4 -9 -10z"/>
<path d="M1340 1416 c0 -2 8 -10 18 -17 15 -13 16 -12 3 4 -13 16 -21 21 -21
13z"/>
<path d="M656 1077 l6 -54 -68 -25 c-73 -27 -75 -31 -59 -90 l7 -28 -84 0
c-78 0 -86 2 -106 25 -44 51 -125 22 -125 -45 0 -67 81 -96 125 -45 20 23 28
25 113 25 l92 0 13 -55 c7 -30 14 -55 15 -55 8 0 113 21 127 26 13 4 24 -9 48
-55 16 -33 30 -63 30 -66 0 -3 -142 -5 -316 -5 l-316 0 -20 25 c-15 19 -29 25
-58 25 -65 0 -91 -61 -49 -114 29 -37 72 -35 109 4 l28 30 319 0 320 0 21 -23
c12 -13 22 -29 22 -36 0 -7 -20 -36 -45 -65 l-44 -52 89 -89 88 -88 56 47 55
48 43 -30 c41 -28 145 -86 168 -94 7 -2 6 -25 -4 -73 -8 -38 -14 -70 -13 -71
1 -1 55 -17 120 -37 l118 -34 13 31 c7 17 18 48 25 69 l13 38 54 -7 54 -6 0
96 c0 53 1 99 3 104 1 4 -27 10 -63 14 -178 19 -337 95 -474 227 -140 135
-234 320 -252 496 l-7 65 -98 0 -99 0 6 -53z"/>
<path d="M2509 1038 c-49 -283 -220 -506 -481 -627 -82 -38 -191 -71 -239 -71
-67 -1 -69 -3 -69 -111 l0 -99 58 6 57 6 24 -66 c13 -36 28 -66 35 -66 15 0
217 58 224 64 3 3 0 31 -7 62 -6 32 -11 63 -11 70 0 7 33 30 73 52 39 22 87
52 106 66 l34 25 57 -50 58 -50 48 50 c27 27 67 67 88 90 l39 40 -46 55 c-26
30 -47 57 -47 61 0 4 20 40 45 79 25 40 50 87 56 104 6 18 12 32 14 32 2 0 36
-7 76 -15 40 -9 76 -12 80 -8 4 5 19 51 33 103 15 52 29 103 32 112 4 13 -11
22 -71 44 l-75 29 0 52 0 53 -88 0 -88 0 -15 -92z"/>
</g>
</svg>
